<?xml version="1.0" standalone="no"?>
<!DOCTYPE svg PUBLIC "-//W3C//DTD SVG 20010904//EN"
 "http://www.w3.org/TR/2001/REC-SVG-20010904/DTD/svg10.dtd">
<svg version="1.0" xmlns="http://www.w3.org/2000/svg"
 width="160.000000pt" height="160.000000pt" viewBox="0 0 160.000000 160.000000"
 preserveAspectRatio="xMidYMid meet">
<metadata>
Created by potrace 1.10, written by Peter Selinger 2001-2011
</metadata>
<g transform="translate(0.000000,160.000000) scale(0.100000,-0.100000)"
fill="#000000" stroke="none">
<path d="M1109 1443 c-13 -14 -18 -23 -11 -19 15 9 17 -40 2 -49 -12 -7 -14
-45 -2 -45 4 0 13 5 18 10 8 8 15 6 24 -4 10 -13 9 -17 -4 -22 -9 -3 -13 -10
-10 -16 3 -5 17 1 32 14 l25 23 -19 -33 c-10 -17 -26 -35 -36 -38 -27 -8 -22
-33 8 -40 l25 -7 -36 -34 c-20 -19 -38 -33 -40 -31 -5 4 15 88 27 114 7 15 7
28 0 40 -13 23 -14 20 -37 -81 -9 -38 -18 -77 -20 -85 -2 -8 -11 -35 -19 -59
-13 -36 -14 -46 -4 -52 9 -6 15 3 21 32 6 26 20 51 40 69 18 16 33 27 34 26 1
-1 -3 -19 -9 -39 -8 -26 -17 -37 -32 -38 -17 -1 -18 -2 -3 -6 22 -6 22 -6 -7
-52 -23 -36 -24 -51 -5 -51 13 0 46 65 53 106 4 21 11 44 15 49 4 6 14 33 21
60 7 28 22 68 33 90 11 22 19 40 18 40 -1 0 0 7 3 15 7 24 14 114 9 128 -3 7
-22 12 -47 12 -33 0 -48 -6 -67 -27z m78 -53 c2 -29 -1 -40 -11 -40 -44 0 -63
33 -26 45 11 3 20 13 20 21 0 33 15 10 17 -26z"/>
<path d="M637 1414 c-15 -8 -25 -19 -22 -24 4 -6 2 -10 -3 -10 -5 0 -12 -9
-15 -21 -3 -11 -2 -19 1 -17 63 34 83 38 110 24 l27 -15 -42 -1 c-52 0 -73 -8
-73 -27 0 -15 2 -15 67 3 16 4 23 1 28 -15 3 -12 11 -19 16 -15 6 4 6 11 -2
20 -9 11 -9 14 1 14 11 0 11 25 -1 70 -9 33 -46 39 -92 14z"/>
<path d="M1058 1376 c-16 -19 -28 -40 -28 -45 0 -6 -6 -10 -12 -8 -7 1 -12 -4
-10 -10 2 -12 -11 -17 -31 -14 -5 1 -6 -3 -2 -8 3 -6 -3 -15 -14 -20 -29 -16
-38 -13 -15 5 18 14 18 15 -3 4 -13 -6 -23 -15 -23 -21 0 -6 -5 -7 -12 -3 -6
4 -8 3 -5 -3 7 -12 -20 -26 -33 -18 -4 3 -15 -6 -24 -20 -9 -14 -23 -25 -31
-25 -8 0 -15 -4 -15 -10 0 -5 -7 -10 -16 -10 -10 0 -13 -6 -10 -18 4 -10 -1
-27 -10 -38 -15 -19 -15 -18 -11 4 3 14 0 22 -8 22 -7 0 -12 -10 -11 -25 0
-14 5 -25 10 -25 5 0 3 -6 -3 -13 -7 -9 -8 -35 -2 -83 5 -38 7 -72 4 -76 -2
-5 -14 -7 -26 -7 -17 1 -18 2 -4 6 19 5 22 14 8 29 -11 11 -19 280 -8 290 4 4
7 -11 7 -34 0 -32 4 -42 16 -42 11 0 14 5 10 16 -3 9 -6 33 -6 55 0 37 -2 39
-31 39 -26 0 -30 -3 -26 -20 3 -10 1 -20 -3 -22 -4 -2 -4 -25 0 -53 5 -27 9
-96 9 -151 1 -79 -2 -104 -14 -114 -12 -10 -18 -10 -30 0 -16 14 -20 3 -6 -19
7 -10 22 -12 65 -7 31 4 56 11 56 15 0 5 14 11 31 15 22 4 30 10 25 21 -3 8
-1 36 3 62 10 49 -1 99 -19 88 -6 -4 -8 -10 -5 -15 3 -5 1 -11 -4 -14 -14 -9
-21 35 -8 52 40 52 111 111 168 140 75 37 120 79 124 116 2 14 6 30 10 35 13
22 -1 10 -27 -23z m-288 -384 c0 -80 -18 -73 -20 8 -2 71 -2 72 10 65 6 -3 10
-36 10 -73z"/>
<path d="M494 1360 c-85 -12 -92 -25 -43 -80 24 -28 27 -30 13 -7 -9 15 -12
27 -7 27 5 0 17 -13 26 -30 10 -16 14 -30 9 -30 -5 0 -3 -19 5 -42 9 -27 17
-102 20 -200 6 -150 5 -157 -15 -169 -17 -11 -20 -21 -17 -63 4 -44 3 -46 -4
-16 -21 87 -9 -24 16 -153 27 -140 26 -164 -2 -229 -6 -14 -2 -18 15 -18 45 0
99 23 141 62 l44 39 -42 -31 c-25 -19 -46 -29 -54 -25 -8 5 -10 4 -5 -3 4 -7
3 -12 -3 -12 -5 0 -11 6 -14 13 -3 9 -7 9 -20 -2 -19 -15 -23 -1 -8 28 6 11 2
58 -13 138 -18 99 -20 125 -9 138 7 10 19 15 28 12 12 -5 14 -1 11 16 -3 12
-8 111 -11 219 -7 214 -24 309 -64 352 -26 27 -27 38 -3 29 15 -6 15 -5 3 10
-12 15 -10 17 14 17 15 0 33 -7 39 -15 8 -10 15 -12 26 -5 12 8 11 11 -8 16
-18 5 -20 9 -10 15 14 10 14 10 -58 -1z m47 -630 c-8 -23 -18 63 -12 107 5 34
6 31 11 -27 4 -36 4 -72 1 -80z"/>
<path d="M633 1275 c-14 -15 -16 -120 -3 -170 6 -22 8 -10 10 50 1 44 2 88 1
98 -1 9 4 17 13 17 9 0 16 5 16 10 0 15 -23 12 -37 -5z"/>
<path d="M956 1104 c-9 -24 -7 -54 4 -54 6 0 11 3 11 8 7 42 6 62 -1 62 -4 0
-11 -7 -14 -16z"/>
<path d="M927 993 c-9 -103 -8 -483 3 -483 5 0 10 11 10 24 0 14 5 28 12 32 7
5 8 3 3 -6 -5 -9 -2 -10 13 -6 15 5 24 1 33 -16 12 -23 12 -23 -10 -4 -31 28
-26 17 24 -60 54 -83 130 -170 167 -192 16 -9 28 -20 28 -25 0 -4 -4 -6 -9 -3
-5 3 -12 -1 -15 -10 -3 -9 -13 -14 -20 -11 -8 3 -17 -1 -21 -10 -4 -13 -8 -14
-17 -5 -7 7 -20 12 -29 12 -9 0 -23 7 -30 17 -13 15 -12 15 8 5 22 -12 93 -12
93 -1 0 12 -52 29 -86 29 -35 0 -68 23 -92 65 -15 27 -26 12 -12 -17 21 -43
-37 32 -110 142 -38 58 -73 110 -79 117 -13 15 -15 60 -5 146 4 42 3 67 -3 67
-13 0 -38 -48 -30 -57 4 -3 7 1 7 10 0 10 5 17 10 17 13 0 13 -12 -1 -47 -10
-26 -12 -27 -19 -8 -9 20 -9 20 -9 0 0 -11 4 -38 9 -60 8 -34 6 -44 -10 -67
-11 -15 -20 -42 -21 -60 l-1 -33 -14 33 -15 34 -18 -24 c-34 -45 -63 -98 -53
-98 6 0 20 12 31 27 20 25 22 25 35 8 13 -18 16 -15 45 31 17 27 29 57 27 67
-8 33 21 17 31 -18 12 -39 7 -48 -7 -13 -6 17 -9 18 -9 6 -1 -9 7 -23 17 -30
9 -7 18 -20 20 -28 2 -8 8 -19 13 -25 7 -7 8 -3 3 10 -9 24 -4 20 21 -20 18
-29 18 -29 0 -15 -17 14 -18 14 -7 -7 7 -12 17 -25 24 -29 7 -5 8 -3 3 6 -6 9
-4 11 4 6 7 -5 10 -14 7 -22 -5 -14 20 -49 83 -117 42 -46 122 -89 165 -90 37
-1 85 21 100 46 9 15 6 22 -14 38 -78 62 -168 177 -152 195 4 4 2 4 -4 1 -7
-4 -14 0 -18 8 -3 8 0 15 6 15 7 0 7 4 -1 14 -6 7 -9 22 -5 32 5 16 4 17 -6 4
-10 -13 -11 -11 -7 8 3 14 0 22 -8 22 -7 0 -18 7 -26 16 -7 8 -20 13 -30 11
-24 -6 -13 20 12 28 40 13 46 29 37 96 -5 35 -13 76 -17 91 -8 23 -5 27 16 31
l25 5 -6 -72 c-4 -62 -4 -65 5 -26 5 25 8 68 7 95 -2 42 -8 55 -30 74 -16 12
-28 18 -28 12 0 -6 -9 -11 -20 -11 -11 0 -20 4 -20 9 0 11 25 32 32 26 3 -3 4
11 3 31 -2 32 -17 53 -36 54 -4 0 -9 -21 -12 -47z m38 -188 c-3 -19 0 -46 5
-60 6 -17 6 -25 -1 -25 -6 0 -3 -7 6 -16 9 -9 14 -23 11 -31 -3 -8 -6 -18 -6
-23 0 -4 -10 -8 -22 -8 -23 0 -23 3 -20 99 3 76 7 99 17 99 10 0 13 -10 10
-35z m-16 -481 c19 -18 39 -31 43 -28 4 3 8 -1 8 -8 1 -7 19 -26 41 -41 50
-34 45 -46 -8 -19 -50 27 -143 128 -143 156 0 6 6 2 12 -8 6 -11 27 -35 47
-52z"/>
<path d="M1000 977 c0 -19 25 -56 41 -60 11 -3 19 -1 19 3 0 4 8 6 18 3 10 -2
24 3 31 11 12 14 9 16 -22 16 -20 0 -39 5 -42 10 -9 15 -27 12 -20 -2 4 -7 -1
-4 -9 6 -9 11 -16 17 -16 13z"/>
<path d="M795 840 c-3 -5 -11 -7 -18 -4 -14 5 -72 -35 -63 -43 2 -3 15 3 29
12 45 29 70 10 61 -46 -4 -22 -2 -39 5 -43 7 -5 11 4 11 26 0 18 3 50 6 71 5
30 3 37 -9 37 -9 0 -18 -4 -22 -10z"/>
<path d="M662 742 c-16 -21 -20 -42 -18 -92 3 -96 11 -102 71 -56 20 15 20 16
-4 13 -20 -2 -26 4 -33 32 -7 25 -6 36 4 43 9 6 6 7 -9 3 -27 -8 -28 -2 -7 30
20 30 34 32 34 5 0 -25 20 -27 21 -2 0 9 2 25 4 35 5 29 -41 21 -63 -11z"/>
<path d="M799 667 c-3 -21 -1 -41 4 -44 15 -9 18 3 9 43 l-9 39 -4 -38z"/>
</g>
</svg>
